# 3ds Max Wavefront OBJ Exporter v0.97b - (c)2007 guruware
# File Created: 03.12.2016 16:33:36

#
# object Plane001
#

v  -70.1044 55.3915 70.1245
v  -56.1062 55.3915 70.1245
v  -56.1062 55.3915 56.1016
v  -70.1044 55.3915 56.1016
v  -42.1081 55.3915 70.1245
v  -42.1081 55.3915 56.1016
v  -42.1081 0.0000 70.1245
v  -28.1099 0.0000 70.1245
v  -28.1099 0.0000 56.1016
v  -42.1081 0.0000 56.1016
v  -14.1118 0.0000 70.1245
v  -14.1118 0.0000 56.1016
v  -0.1136 0.0000 70.1245
v  -0.1136 0.0000 56.1016
v  13.8846 0.0000 70.1245
v  13.8846 0.0000 56.1016
v  27.8827 0.0000 70.1245
v  27.8827 0.0000 56.1016
v  41.8809 0.0000 70.1245
v  41.8809 0.0000 56.1016
v  41.8809 55.3915 70.1245
v  55.8790 55.3915 70.1245
v  55.8790 55.3915 56.1016
v  41.8809 55.3915 56.1016
v  69.8772 55.3915 70.1245
v  69.8772 55.3915 56.1016
v  -56.1062 55.3915 42.0786
v  -70.1044 55.3915 42.0786
v  -56.1062 0.0000 56.1016
v  -42.1081 0.0000 42.0786
v  -56.1062 0.0000 42.0786
v  -28.1099 0.0000 42.0786
v  -14.1118 0.0000 42.0786
v  -0.1136 0.0000 42.0786
v  13.8846 0.0000 42.0786
v  27.8827 0.0000 42.0786
v  41.8809 0.0000 42.0786
v  55.8790 0.0000 56.1016
v  55.8790 0.0000 42.0786
v  69.8772 55.3915 42.0786
v  55.8790 55.3915 42.0786
v  -70.1044 0.0000 42.0786
v  -56.1062 0.0000 28.0557
v  -70.1044 0.0000 28.0557
v  -42.1081 0.0000 28.0557
v  -28.1099 0.0000 28.0557
v  -14.1118 0.0000 28.0557
v  -0.1136 0.0000 28.0557
v  13.8846 0.0000 28.0557
v  27.8827 0.0000 28.0557
v  41.8809 0.0000 28.0557
v  55.8790 0.0000 28.0557
v  69.8772 0.0000 42.0786
v  69.8772 0.0000 28.0557
v  -56.1062 0.0000 14.0328
v  -70.1044 0.0000 14.0328
v  -42.1081 0.0000 14.0328
v  -28.1099 0.0000 14.0328
v  -14.1118 0.0000 14.0328
v  -0.1136 0.0000 14.0328
v  13.8846 0.0000 14.0328
v  27.8827 0.0000 14.0328
v  41.8809 0.0000 14.0328
v  55.8790 0.0000 14.0328
v  69.8772 0.0000 14.0328
v  -70.1044 55.3915 14.0328
v  -56.1062 55.3915 14.0328
v  -56.1062 55.3915 0.0098
v  -70.1044 55.3915 0.0098
v  -42.1081 0.0000 0.0098
v  -56.1062 0.0000 0.0098
v  -28.1099 0.0000 0.0098
v  -14.1118 0.0000 0.0098
v  -0.1136 0.0000 0.0098
v  13.8846 0.0000 0.0098
v  27.8827 0.0000 0.0098
v  41.8809 0.0000 0.0098
v  55.8790 0.0000 0.0098
v  55.8790 55.3915 14.0328
v  69.8772 55.3915 14.0328
v  69.8772 55.3915 0.0098
v  55.8790 55.3915 0.0098
v  -56.1062 55.3915 -14.0131
v  -70.1044 55.3915 -14.0131
v  -42.1081 0.0000 -14.0131
v  -56.1062 0.0000 -14.0131
v  -28.1099 0.0000 -14.0131
v  -14.1118 0.0000 -14.0131
v  -0.1136 0.0000 -14.0131
v  13.8846 0.0000 -14.0131
v  27.8827 0.0000 -14.0131
v  41.8809 0.0000 -14.0131
v  55.8790 0.0000 -14.0131
v  69.8772 55.3915 -14.0131
v  55.8790 55.3915 -14.0131
v  -70.1044 0.0000 -14.0131
v  -56.1062 0.0000 -28.0360
v  -70.1044 0.0000 -28.0360
v  -42.1081 0.0000 -28.0360
v  -28.1099 0.0000 -28.0360
v  -14.1118 0.0000 -28.0360
v  -0.1136 0.0000 -28.0360
v  13.8846 0.0000 -28.0360
v  27.8827 0.0000 -28.0360
v  41.8809 0.0000 -28.0360
v  55.8790 0.0000 -28.0360
v  69.8772 0.0000 -14.0131
v  69.8772 0.0000 -28.0360
v  -56.1062 0.0000 -42.0590
v  -70.1044 0.0000 -42.0590
v  -42.1081 0.0000 -42.0590
v  -28.1099 0.0000 -42.0590
v  -14.1118 0.0000 -42.0590
v  -0.1136 0.0000 -42.0590
v  13.8846 0.0000 -42.0590
v  27.8827 0.0000 -42.0590
v  41.8809 0.0000 -42.0590
v  55.8790 0.0000 -42.0590
v  69.8772 0.0000 -42.0590
v  -70.1044 55.3915 -42.0590
v  -56.1062 55.3915 -42.0590
v  -56.1062 55.3915 -56.0819
v  -70.1044 55.3915 -56.0819
v  -42.1081 0.0000 -56.0819
v  -56.1062 0.0000 -56.0819
v  -28.1099 0.0000 -56.0819
v  -14.1118 0.0000 -56.0819
v  -0.1136 0.0000 -56.0819
v  13.8846 0.0000 -56.0819
v  27.8827 0.0000 -56.0819
v  41.8809 0.0000 -56.0819
v  55.8790 0.0000 -56.0819
v  55.8790 55.3915 -42.0590
v  69.8772 55.3915 -42.0590
v  69.8772 55.3915 -56.0819
v  55.8790 55.3915 -56.0819
v  -56.1062 55.3915 -70.1048
v  -70.1044 55.3915 -70.1048
v  -42.1081 55.3915 -56.0819
v  -42.1081 55.3915 -70.1048
v  -28.1099 0.0000 -70.1048
v  -42.1081 0.0000 -70.1048
v  -14.1118 0.0000 -70.1048
v  -0.1136 0.0000 -70.1048
v  13.8846 0.0000 -70.1048
v  27.8827 0.0000 -70.1048
v  41.8809 0.0000 -70.1048
v  41.8809 55.3915 -56.0819
v  55.8790 55.3915 -70.1048
v  41.8809 55.3915 -70.1048
v  69.8772 55.3915 -70.1048
v  -70.1044 0.0000 56.1016
v  -70.1044 0.0000 70.1245
v  -56.1062 0.0000 70.1245
v  55.8790 0.0000 70.1245
v  69.8772 0.0000 70.1245
v  69.8772 0.0000 56.1016
v  -70.1044 0.0000 0.0098
v  69.8772 0.0000 0.0098
v  -56.1062 0.0000 -70.1048
v  -70.1044 0.0000 -70.1048
v  -70.1044 0.0000 -56.0819
v  69.8772 0.0000 -56.0819
v  69.8772 0.0000 -70.1048
v  55.8790 0.0000 -70.1048
# 165 vertices

vn 0.0000 1.0000 -0.0000
vn -1.0000 0.0000 -0.0000
vn 0.0000 0.0000 1.0000
vn 1.0000 0.0000 -0.0000
vn 0.0000 0.0000 -1.0000
# 5 vertex normals

vt -2.9995 -3.0057 1.8848
vt -2.2996 -3.0057 1.8848
vt -2.2996 -2.3046 1.8848
vt -2.9995 -2.3046 1.8848
vt -1.5997 -3.0057 1.8848
vt -1.5997 -2.3046 1.8848
vt -1.5997 -3.0057 -0.8848
vt -0.8998 -3.0057 -0.8848
vt -0.8998 -2.3046 -0.8848
vt -1.5997 -2.3046 -0.8848
vt -0.1999 -3.0057 -0.8848
vt -0.1999 -2.3046 -0.8848
vt 0.5000 -3.0057 -0.8848
vt 0.5000 -2.3046 -0.8848
vt 1.1999 -3.0057 -0.8848
vt 1.1999 -2.3046 -0.8848
vt 1.8998 -3.0057 -0.8848
vt 1.8998 -2.3046 -0.8848
vt 2.5997 -3.0057 -0.8848
vt 2.5997 -2.3046 -0.8848
vt 2.5997 -3.0057 1.8848
vt 3.2996 -3.0057 1.8848
vt 3.2996 -2.3046 1.8848
vt 2.5997 -2.3046 1.8848
vt 3.9995 -3.0057 1.8848
vt 3.9995 -2.3046 1.8848
vt -2.2996 -1.6034 1.8848
vt -2.9995 -1.6034 1.8848
vt -2.2996 -2.3046 -0.8848
vt -1.5997 -1.6034 -0.8848
vt -2.2996 -1.6034 -0.8848
vt -0.8998 -1.6034 -0.8848
vt -0.1999 -1.6034 -0.8848
vt 0.5000 -1.6034 -0.8848
vt 1.1999 -1.6034 -0.8848
vt 1.8998 -1.6034 -0.8848
vt 2.5997 -1.6034 -0.8848
vt 3.2996 -2.3046 -0.8848
vt 3.2996 -1.6034 -0.8848
vt 3.9995 -1.6034 1.8848
vt 3.2996 -1.6034 1.8848
vt -2.9995 -1.6034 -0.8848
vt -2.2996 -0.9023 -0.8848
vt -2.9995 -0.9023 -0.8848
vt -1.5997 -0.9023 -0.8848
vt -0.8998 -0.9023 -0.8848
vt -0.1999 -0.9023 -0.8848
vt 0.5000 -0.9023 -0.8848
vt 1.1999 -0.9023 -0.8848
vt 1.8998 -0.9023 -0.8848
vt 2.5997 -0.9023 -0.8848
vt 3.2996 -0.9023 -0.8848
vt 3.9995 -1.6034 -0.8848
vt 3.9995 -0.9023 -0.8848
vt -2.2996 -0.2011 -0.8848
vt -2.9995 -0.2011 -0.8848
vt -1.5997 -0.2011 -0.8848
vt -0.8998 -0.2011 -0.8848
vt -0.1999 -0.2011 -0.8848
vt 0.5000 -0.2011 -0.8848
vt 1.1999 -0.2011 -0.8848
vt 1.8998 -0.2011 -0.8848
vt 2.5997 -0.2011 -0.8848
vt 3.2996 -0.2011 -0.8848
vt 3.9995 -0.2011 -0.8848
vt -2.9995 -0.2011 1.8848
vt -2.2996 -0.2011 1.8848
vt -2.2996 0.5000 1.8848
vt -2.9995 0.5000 1.8848
vt -1.5997 0.5000 -0.8848
vt -2.2996 0.5000 -0.8848
vt -0.8998 0.5000 -0.8848
vt -0.1999 0.5000 -0.8848
vt 0.5000 0.5000 -0.8848
vt 1.1999 0.5000 -0.8848
vt 1.8998 0.5000 -0.8848
vt 2.5997 0.5000 -0.8848
vt 3.2996 0.5000 -0.8848
vt 3.2996 -0.2011 1.8848
vt 3.9995 -0.2011 1.8848
vt 3.9995 0.5000 1.8848
vt 3.2996 0.5000 1.8848
vt -2.2996 1.2011 1.8848
vt -2.9995 1.2011 1.8848
vt -1.5997 1.2011 -0.8848
vt -2.2996 1.2011 -0.8848
vt -0.8998 1.2011 -0.8848
vt -0.1999 1.2011 -0.8848
vt 0.5000 1.2011 -0.8848
vt 1.1999 1.2011 -0.8848
vt 1.8998 1.2011 -0.8848
vt 2.5997 1.2011 -0.8848
vt 3.2996 1.2011 -0.8848
vt 3.9995 1.2011 1.8848
vt 3.2996 1.2011 1.8848
vt -2.9995 1.2011 -0.8848
vt -2.2996 1.9023 -0.8848
vt -2.9995 1.9023 -0.8848
vt -1.5997 1.9023 -0.8848
vt -0.8998 1.9023 -0.8848
vt -0.1999 1.9023 -0.8848
vt 0.5000 1.9023 -0.8848
vt 1.1999 1.9023 -0.8848
vt 1.8998 1.9023 -0.8848
vt 2.5997 1.9023 -0.8848
vt 3.2996 1.9023 -0.8848
vt 3.9995 1.2011 -0.8848
vt 3.9995 1.9023 -0.8848
vt -2.2996 2.6034 -0.8848
vt -2.9995 2.6034 -0.8848
vt -1.5997 2.6034 -0.8848
vt -0.8998 2.6034 -0.8848
vt -0.1999 2.6034 -0.8848
vt 0.5000 2.6034 -0.8848
vt 1.1999 2.6034 -0.8848
vt 1.8998 2.6034 -0.8848
vt 2.5997 2.6034 -0.8848
vt 3.2996 2.6034 -0.8848
vt 3.9995 2.6034 -0.8848
vt -2.9995 2.6034 1.8848
vt -2.2996 2.6034 1.8848
vt -2.2996 3.3046 1.8848
vt -2.9995 3.3046 1.8848
vt -1.5997 3.3046 -0.8848
vt -2.2996 3.3046 -0.8848
vt -0.8998 3.3046 -0.8848
vt -0.1999 3.3046 -0.8848
vt 0.5000 3.3046 -0.8848
vt 1.1999 3.3046 -0.8848
vt 1.8998 3.3046 -0.8848
vt 2.5997 3.3046 -0.8848
vt 3.2996 3.3046 -0.8848
vt 3.2996 2.6034 1.8848
vt 3.9995 2.6034 1.8848
vt 3.9995 3.3046 1.8848
vt 3.2996 3.3046 1.8848
vt -2.2996 4.0057 1.8848
vt -2.9995 4.0057 1.8848
vt -1.5997 3.3046 1.8848
vt -1.5997 4.0057 1.8848
vt -0.8998 4.0057 -0.8848
vt -1.5997 4.0057 -0.8848
vt -0.1999 4.0057 -0.8848
vt 0.5000 4.0057 -0.8848
vt 1.1999 4.0057 -0.8848
vt 1.8998 4.0057 -0.8848
vt 2.5997 4.0057 -0.8848
vt 2.5997 3.3046 1.8848
vt 3.2996 4.0057 1.8848
vt 2.5997 4.0057 1.8848
vt 3.9995 4.0057 1.8848
vt 3.3046 -0.8848 -2.9995
vt 4.0057 -0.8848 -2.9995
vt 4.0057 1.8848 -2.9995
vt 3.3046 1.8848 -2.9995
vt -2.9995 -0.8848 -3.0057
vt -2.2996 -0.8848 -3.0057
vt -2.2996 1.8848 -3.0057
vt -2.9995 1.8848 -3.0057
vt -1.5997 -0.8848 -3.0057
vt -1.5997 1.8848 -3.0057
vt -3.0057 -0.8848 -1.5997
vt -2.3046 -0.8848 -1.5997
vt -2.3046 1.8848 -1.5997
vt -3.0057 1.8848 -1.5997
vt 2.5997 -0.8848 -2.3046
vt 3.2996 -0.8848 -2.3046
vt 3.2996 1.8848 -2.3046
vt 2.5997 1.8848 -2.3046
vt -2.3046 -0.8848 -2.2996
vt -1.6034 -0.8848 -2.2996
vt -1.6034 1.8848 -2.2996
vt -2.3046 1.8848 -2.2996
vt 3.2996 -0.8848 -1.6034
vt 3.9995 -0.8848 -1.6034
vt 3.9995 1.8848 -1.6034
vt 3.2996 1.8848 -1.6034
vt 2.6034 -0.8848 -2.9995
vt 2.6034 1.8848 -2.9995
vt 3.3046 -0.8848 2.5997
vt 4.0057 -0.8848 2.5997
vt 4.0057 1.8848 2.5997
vt 3.3046 1.8848 2.5997
vt 2.5997 -0.8848 -3.0057
vt 3.2996 -0.8848 -3.0057
vt 3.2996 1.8848 -3.0057
vt 2.5997 1.8848 -3.0057
vt 3.9995 -0.8848 -3.0057
vt 3.9995 1.8848 -3.0057
vt -3.0057 -0.8848 3.9995
vt -2.3046 -0.8848 3.9995
vt -2.3046 1.8848 3.9995
vt -3.0057 1.8848 3.9995
vt -1.6034 -0.8848 3.9995
vt -1.6034 1.8848 3.9995
vt -2.9995 -0.8848 -1.6034
vt -2.2996 -0.8848 -1.6034
vt -2.2996 1.8848 -1.6034
vt -2.9995 1.8848 -1.6034
vt 2.6034 -0.8848 3.2996
vt 3.3046 -0.8848 3.2996
vt 3.3046 1.8848 3.2996
vt 2.6034 1.8848 3.2996
vt -2.2996 -0.8848 -2.3046
vt -1.5997 -0.8848 -2.3046
vt -1.5997 1.8848 -2.3046
vt -2.2996 1.8848 -2.3046
vt -2.9995 -0.8848 -0.2011
vt -2.2996 -0.8848 -0.2011
vt -2.2996 1.8848 -0.2011
vt -2.9995 1.8848 -0.2011
vt -0.2011 -0.8848 -2.2996
vt 0.5000 -0.8848 -2.2996
vt 0.5000 1.8848 -2.2996
vt -0.2011 1.8848 -2.2996
vt 1.2011 -0.8848 -2.2996
vt 1.2011 1.8848 -2.2996
vt 3.2996 -0.8848 1.2011
vt 3.9995 -0.8848 1.2011
vt 3.9995 1.8848 1.2011
vt 3.2996 1.8848 1.2011
vt -0.2011 -0.8848 -2.9995
vt 0.5000 -0.8848 -2.9995
vt 0.5000 1.8848 -2.9995
vt -0.2011 1.8848 -2.9995
vt 1.2011 -0.8848 -2.9995
vt 1.2011 1.8848 -2.9995
vt 3.2996 -0.8848 -0.2011
vt 3.9995 -0.8848 -0.2011
vt 3.9995 1.8848 -0.2011
vt 3.2996 1.8848 -0.2011
vt -0.2011 -0.8848 3.9995
vt 0.5000 -0.8848 3.9995
vt 0.5000 1.8848 3.9995
vt -0.2011 1.8848 3.9995
vt 1.2011 -0.8848 3.9995
vt 1.2011 1.8848 3.9995
vt -2.9995 -0.8848 1.2011
vt -2.2996 -0.8848 1.2011
vt -2.2996 1.8848 1.2011
vt -2.9995 1.8848 1.2011
vt -0.2011 -0.8848 3.2996
vt 0.5000 -0.8848 3.2996
vt 0.5000 1.8848 3.2996
vt -0.2011 1.8848 3.2996
vt 1.2011 -0.8848 3.2996
vt 1.2011 1.8848 3.2996
vt -2.9995 -0.8848 2.6034
vt -2.2996 -0.8848 2.6034
vt -2.2996 1.8848 2.6034
vt -2.9995 1.8848 2.6034
vt 2.6034 -0.8848 -2.2996
vt 3.3046 -0.8848 -2.2996
vt 3.3046 1.8848 -2.2996
vt 2.6034 1.8848 -2.2996
vt -2.2996 -0.8848 3.3046
vt -1.5997 -0.8848 3.3046
vt -1.5997 1.8848 3.3046
vt -2.2996 1.8848 3.3046
vt 3.3046 -0.8848 -1.5997
vt 4.0057 -0.8848 -1.5997
vt 4.0057 1.8848 -1.5997
vt 3.3046 1.8848 -1.5997
vt 2.5997 -0.8848 4.0057
vt 3.2996 -0.8848 4.0057
vt 3.2996 1.8848 4.0057
vt 2.5997 1.8848 4.0057
vt 3.9995 -0.8848 4.0057
vt 3.9995 1.8848 4.0057
vt -3.0057 -0.8848 -2.9995
vt -2.3046 -0.8848 -2.9995
vt -2.3046 1.8848 -2.9995
vt -3.0057 1.8848 -2.9995
vt -1.6034 -0.8848 -2.9995
vt -1.6034 1.8848 -2.9995
vt 3.2996 -0.8848 2.6034
vt 3.9995 -0.8848 2.6034
vt 3.9995 1.8848 2.6034
vt 3.2996 1.8848 2.6034
vt 2.6034 -0.8848 3.9995
vt 3.3046 -0.8848 3.9995
vt 3.3046 1.8848 3.9995
vt 2.6034 1.8848 3.9995
vt 4.0057 -0.8848 3.9995
vt 4.0057 1.8848 3.9995
vt -2.9995 -0.8848 4.0057
vt -2.2996 -0.8848 4.0057
vt -2.2996 1.8848 4.0057
vt -2.9995 1.8848 4.0057
vt -1.5997 -0.8848 4.0057
vt -1.5997 1.8848 4.0057
vt -3.0057 -0.8848 2.5997
vt -2.3046 -0.8848 2.5997
vt -2.3046 1.8848 2.5997
vt -3.0057 1.8848 2.5997
vt 2.5997 -0.8848 3.3046
vt 3.2996 -0.8848 3.3046
vt 3.2996 1.8848 3.3046
vt 2.5997 1.8848 3.3046
vt -2.3046 -0.8848 3.2996
vt -1.6034 -0.8848 3.2996
vt -1.6034 1.8848 3.2996
vt -2.3046 1.8848 3.2996
# 303 texture coords

g Plane001
f 1/1/1 2/2/1 3/3/1 
f 3/3/1 4/4/1 1/1/1 
f 2/2/1 5/5/1 6/6/1 
f 6/6/1 3/3/1 2/2/1 
f 7/7/1 8/8/1 9/9/1 
f 9/9/1 10/10/1 7/7/1 
f 8/8/1 11/11/1 12/12/1 
f 12/12/1 9/9/1 8/8/1 
f 11/11/1 13/13/1 14/14/1 
f 14/14/1 12/12/1 11/11/1 
f 13/13/1 15/15/1 16/16/1 
f 16/16/1 14/14/1 13/13/1 
f 15/15/1 17/17/1 18/18/1 
f 18/18/1 16/16/1 15/15/1 
f 17/17/1 19/19/1 20/20/1 
f 20/20/1 18/18/1 17/17/1 
f 21/21/1 22/22/1 23/23/1 
f 23/23/1 24/24/1 21/21/1 
f 22/22/1 25/25/1 26/26/1 
f 26/26/1 23/23/1 22/22/1 
f 4/4/1 3/3/1 27/27/1 
f 27/27/1 28/28/1 4/4/1 
f 29/29/1 10/10/1 30/30/1 
f 30/30/1 31/31/1 29/29/1 
f 10/10/1 9/9/1 32/32/1 
f 32/32/1 30/30/1 10/10/1 
f 9/9/1 12/12/1 33/33/1 
f 33/33/1 32/32/1 9/9/1 
f 12/12/1 14/14/1 34/34/1 
f 34/34/1 33/33/1 12/12/1 
f 14/14/1 16/16/1 35/35/1 
f 35/35/1 34/34/1 14/14/1 
f 16/16/1 18/18/1 36/36/1 
f 36/36/1 35/35/1 16/16/1 
f 18/18/1 20/20/1 37/37/1 
f 37/37/1 36/36/1 18/18/1 
f 20/20/1 38/38/1 39/39/1 
f 39/39/1 37/37/1 20/20/1 
f 23/23/1 26/26/1 40/40/1 
f 40/40/1 41/41/1 23/23/1 
f 42/42/1 31/31/1 43/43/1 
f 43/43/1 44/44/1 42/42/1 
f 31/31/1 30/30/1 45/45/1 
f 45/45/1 43/43/1 31/31/1 
f 30/30/1 32/32/1 46/46/1 
f 46/46/1 45/45/1 30/30/1 
f 32/32/1 33/33/1 47/47/1 
f 47/47/1 46/46/1 32/32/1 
f 33/33/1 34/34/1 48/48/1 
f 48/48/1 47/47/1 33/33/1 
f 34/34/1 35/35/1 49/49/1 
f 49/49/1 48/48/1 34/34/1 
f 35/35/1 36/36/1 50/50/1 
f 50/50/1 49/49/1 35/35/1 
f 36/36/1 37/37/1 51/51/1 
f 51/51/1 50/50/1 36/36/1 
f 37/37/1 39/39/1 52/52/1 
f 52/52/1 51/51/1 37/37/1 
f 39/39/1 53/53/1 54/54/1 
f 54/54/1 52/52/1 39/39/1 
f 44/44/1 43/43/1 55/55/1 
f 55/55/1 56/56/1 44/44/1 
f 43/43/1 45/45/1 57/57/1 
f 57/57/1 55/55/1 43/43/1 
f 45/45/1 46/46/1 58/58/1 
f 58/58/1 57/57/1 45/45/1 
f 46/46/1 47/47/1 59/59/1 
f 59/59/1 58/58/1 46/46/1 
f 47/47/1 48/48/1 60/60/1 
f 60/60/1 59/59/1 47/47/1 
f 48/48/1 49/49/1 61/61/1 
f 61/61/1 60/60/1 48/48/1 
f 49/49/1 50/50/1 62/62/1 
f 62/62/1 61/61/1 49/49/1 
f 50/50/1 51/51/1 63/63/1 
f 63/63/1 62/62/1 50/50/1 
f 51/51/1 52/52/1 64/64/1 
f 64/64/1 63/63/1 51/51/1 
f 52/52/1 54/54/1 65/65/1 
f 65/65/1 64/64/1 52/52/1 
f 66/66/1 67/67/1 68/68/1 
f 68/68/1 69/69/1 66/66/1 
f 55/55/1 57/57/1 70/70/1 
f 70/70/1 71/71/1 55/55/1 
f 57/57/1 58/58/1 72/72/1 
f 72/72/1 70/70/1 57/57/1 
f 58/58/1 59/59/1 73/73/1 
f 73/73/1 72/72/1 58/58/1 
f 59/59/1 60/60/1 74/74/1 
f 74/74/1 73/73/1 59/59/1 
f 60/60/1 61/61/1 75/75/1 
f 75/75/1 74/74/1 60/60/1 
f 61/61/1 62/62/1 76/76/1 
f 76/76/1 75/75/1 61/61/1 
f 62/62/1 63/63/1 77/77/1 
f 77/77/1 76/76/1 62/62/1 
f 63/63/1 64/64/1 78/78/1 
f 78/78/1 77/77/1 63/63/1 
f 79/79/1 80/80/1 81/81/1 
f 81/81/1 82/82/1 79/79/1 
f 69/69/1 68/68/1 83/83/1 
f 83/83/1 84/84/1 69/69/1 
f 71/71/1 70/70/1 85/85/1 
f 85/85/1 86/86/1 71/71/1 
f 70/70/1 72/72/1 87/87/1 
f 87/87/1 85/85/1 70/70/1 
f 72/72/1 73/73/1 88/88/1 
f 88/88/1 87/87/1 72/72/1 
f 73/73/1 74/74/1 89/89/1 
f 89/89/1 88/88/1 73/73/1 
f 74/74/1 75/75/1 90/90/1 
f 90/90/1 89/89/1 74/74/1 
f 75/75/1 76/76/1 91/91/1 
f 91/91/1 90/90/1 75/75/1 
f 76/76/1 77/77/1 92/92/1 
f 92/92/1 91/91/1 76/76/1 
f 77/77/1 78/78/1 93/93/1 
f 93/93/1 92/92/1 77/77/1 
f 82/82/1 81/81/1 94/94/1 
f 94/94/1 95/95/1 82/82/1 
f 96/96/1 86/86/1 97/97/1 
f 97/97/1 98/98/1 96/96/1 
f 86/86/1 85/85/1 99/99/1 
f 99/99/1 97/97/1 86/86/1 
f 85/85/1 87/87/1 100/100/1 
f 100/100/1 99/99/1 85/85/1 
f 87/87/1 88/88/1 101/101/1 
f 101/101/1 100/100/1 87/87/1 
f 88/88/1 89/89/1 102/102/1 
f 102/102/1 101/101/1 88/88/1 
f 89/89/1 90/90/1 103/103/1 
f 103/103/1 102/102/1 89/89/1 
f 90/90/1 91/91/1 104/104/1 
f 104/104/1 103/103/1 90/90/1 
f 91/91/1 92/92/1 105/105/1 
f 105/105/1 104/104/1 91/91/1 
f 92/92/1 93/93/1 106/106/1 
f 106/106/1 105/105/1 92/92/1 
f 93/93/1 107/107/1 108/108/1 
f 108/108/1 106/106/1 93/93/1 
f 98/98/1 97/97/1 109/109/1 
f 109/109/1 110/110/1 98/98/1 
f 97/97/1 99/99/1 111/111/1 
f 111/111/1 109/109/1 97/97/1 
f 99/99/1 100/100/1 112/112/1 
f 112/112/1 111/111/1 99/99/1 
f 100/100/1 101/101/1 113/113/1 
f 113/113/1 112/112/1 100/100/1 
f 101/101/1 102/102/1 114/114/1 
f 114/114/1 113/113/1 101/101/1 
f 102/102/1 103/103/1 115/115/1 
f 115/115/1 114/114/1 102/102/1 
f 103/103/1 104/104/1 116/116/1 
f 116/116/1 115/115/1 103/103/1 
f 104/104/1 105/105/1 117/117/1 
f 117/117/1 116/116/1 104/104/1 
f 105/105/1 106/106/1 118/118/1 
f 118/118/1 117/117/1 105/105/1 
f 106/106/1 108/108/1 119/119/1 
f 119/119/1 118/118/1 106/106/1 
f 120/120/1 121/121/1 122/122/1 
f 122/122/1 123/123/1 120/120/1 
f 109/109/1 111/111/1 124/124/1 
f 124/124/1 125/125/1 109/109/1 
f 111/111/1 112/112/1 126/126/1 
f 126/126/1 124/124/1 111/111/1 
f 112/112/1 113/113/1 127/127/1 
f 127/127/1 126/126/1 112/112/1 
f 113/113/1 114/114/1 128/128/1 
f 128/128/1 127/127/1 113/113/1 
f 114/114/1 115/115/1 129/129/1 
f 129/129/1 128/128/1 114/114/1 
f 115/115/1 116/116/1 130/130/1 
f 130/130/1 129/129/1 115/115/1 
f 116/116/1 117/117/1 131/131/1 
f 131/131/1 130/130/1 116/116/1 
f 117/117/1 118/118/1 132/132/1 
f 132/132/1 131/131/1 117/117/1 
f 133/133/1 134/134/1 135/135/1 
f 135/135/1 136/136/1 133/133/1 
f 123/123/1 122/122/1 137/137/1 
f 137/137/1 138/138/1 123/123/1 
f 122/122/1 139/139/1 140/140/1 
f 140/140/1 137/137/1 122/122/1 
f 124/124/1 126/126/1 141/141/1 
f 141/141/1 142/142/1 124/124/1 
f 126/126/1 127/127/1 143/143/1 
f 143/143/1 141/141/1 126/126/1 
f 127/127/1 128/128/1 144/144/1 
f 144/144/1 143/143/1 127/127/1 
f 128/128/1 129/129/1 145/145/1 
f 145/145/1 144/144/1 128/128/1 
f 129/129/1 130/130/1 146/146/1 
f 146/146/1 145/145/1 129/129/1 
f 130/130/1 131/131/1 147/147/1 
f 147/147/1 146/146/1 130/130/1 
f 148/148/1 136/136/1 149/149/1 
f 149/149/1 150/150/1 148/148/1 
f 136/136/1 135/135/1 151/151/1 
f 151/151/1 149/149/1 136/136/1 
f 152/152/2 153/153/2 1/154/2 
f 1/154/2 4/155/2 152/152/2 
f 153/156/3 154/157/3 2/158/3 
f 2/158/3 1/159/3 153/156/3 
f 154/157/3 7/160/3 5/161/3 
f 5/161/3 2/158/3 154/157/3 
f 7/162/4 10/163/4 6/164/4 
f 6/164/4 5/165/4 7/162/4 
f 10/166/5 29/167/5 3/168/5 
f 3/168/5 6/169/5 10/166/5 
f 29/170/4 31/171/4 27/172/4 
f 27/172/4 3/173/4 29/170/4 
f 31/174/5 42/175/5 28/176/5 
f 28/176/5 27/177/5 31/174/5 
f 42/178/2 152/152/2 4/155/2 
f 4/155/2 28/179/2 42/178/2 
f 20/180/2 19/181/2 21/182/2 
f 21/182/2 24/183/2 20/180/2 
f 19/184/3 155/185/3 22/186/3 
f 22/186/3 21/187/3 19/184/3 
f 155/185/3 156/188/3 25/189/3 
f 25/189/3 22/186/3 155/185/3 
f 156/190/4 157/191/4 26/192/4 
f 26/192/4 25/193/4 156/190/4 
f 157/191/4 53/194/4 40/195/4 
f 40/195/4 26/192/4 157/191/4 
f 53/196/5 39/197/5 41/198/5 
f 41/198/5 40/199/5 53/196/5 
f 39/200/2 38/201/2 23/202/2 
f 23/202/2 41/203/2 39/200/2 
f 38/204/5 20/205/5 24/206/5 
f 24/206/5 23/207/5 38/204/5 
f 56/208/3 55/209/3 67/210/3 
f 67/210/3 66/211/3 56/208/3 
f 55/212/4 71/213/4 68/214/4 
f 68/214/4 67/215/4 55/212/4 
f 71/213/4 86/216/4 83/217/4 
f 83/217/4 68/214/4 71/213/4 
f 86/218/5 96/219/5 84/220/5 
f 84/220/5 83/221/5 86/218/5 
f 96/222/2 158/223/2 69/224/2 
f 69/224/2 84/225/2 96/222/2 
f 158/223/2 56/226/2 66/227/2 
f 66/227/2 69/224/2 158/223/2 
f 64/228/3 65/229/3 80/230/3 
f 80/230/3 79/231/3 64/228/3 
f 65/232/4 159/233/4 81/234/4 
f 81/234/4 80/235/4 65/232/4 
f 159/233/4 107/236/4 94/237/4 
f 94/237/4 81/234/4 159/233/4 
f 107/238/5 93/239/5 95/240/5 
f 95/240/5 94/241/5 107/238/5 
f 93/242/2 78/243/2 82/244/2 
f 82/244/2 95/245/2 93/242/2 
f 78/243/2 64/246/2 79/247/2 
f 79/247/2 82/244/2 78/243/2 
f 110/248/3 109/249/3 121/250/3 
f 121/250/3 120/251/3 110/248/3 
f 109/252/4 125/253/4 122/254/4 
f 122/254/4 121/255/4 109/252/4 
f 125/256/3 124/257/3 139/258/3 
f 139/258/3 122/259/3 125/256/3 
f 124/260/4 142/261/4 140/262/4 
f 140/262/4 139/263/4 124/260/4 
f 142/264/5 160/265/5 137/266/5 
f 137/266/5 140/267/5 142/264/5 
f 160/265/5 161/268/5 138/269/5 
f 138/269/5 137/266/5 160/265/5 
f 161/270/2 162/271/2 123/272/2 
f 123/272/2 138/273/2 161/270/2 
f 162/271/2 110/274/2 120/275/2 
f 120/275/2 123/272/2 162/271/2 
f 118/276/3 119/277/3 134/278/3 
f 134/278/3 133/279/3 118/276/3 
f 119/280/4 163/281/4 135/282/4 
f 135/282/4 134/283/4 119/280/4 
f 163/281/4 164/284/4 151/285/4 
f 151/285/4 135/282/4 163/281/4 
f 164/286/5 165/287/5 149/288/5 
f 149/288/5 151/289/5 164/286/5 
f 165/287/5 147/290/5 150/291/5 
f 150/291/5 149/288/5 165/287/5 
f 147/292/2 131/293/2 148/294/2 
f 148/294/2 150/295/2 147/292/2 
f 131/296/3 132/297/3 136/298/3 
f 136/298/3 148/299/3 131/296/3 
f 132/300/2 118/301/2 133/302/2 
f 133/302/2 136/303/2 132/300/2 
# 288 faces

